<?xml version="1.0" encoding="UTF-8"?>
<!DOCTYPE svg PUBLIC "-//W3C//DTD SVG 1.1//EN" "http://www.w3.org/Graphics/SVG/1.1/DTD/svg11.dtd">
<svg xmlns="http://www.w3.org/2000/svg" version="1.1" width="359px" height="201px" style="shape-rendering:geometricPrecision; text-rendering:geometricPrecision; image-rendering:optimizeQuality; fill-rule:evenodd; clip-rule:evenodd" xmlns:xlink="http://www.w3.org/1999/xlink">
<g><path style="opacity:1" fill="#567cc8" d="M 265.5,21.5 C 267.176,22.1834 267.843,23.5168 267.5,25.5C 267.5,31.5 267.5,37.5 267.5,43.5C 267.351,44.552 267.517,45.552 268,46.5C 268.69,45.2617 269.19,45.2617 269.5,46.5C 269.737,47.791 269.404,48.791 268.5,49.5C 267.883,49.6107 267.383,49.944 267,50.5C 266.755,40.8004 266.255,31.1337 265.5,21.5 Z"/></g>
<g><path style="opacity:1" fill="#d0d7e5" d="M 152.5,22.5 C 154.607,21.5318 156.941,21.1984 159.5,21.5C 159.662,23.5273 159.495,25.5273 159,27.5C 157.187,28.6091 156.354,27.9424 156.5,25.5C 154.345,25.372 152.345,25.872 150.5,27C 148.963,28.7073 147.296,30.2073 145.5,31.5C 147.321,27.5147 150.321,24.6814 154.5,23C 153.906,22.5357 153.239,22.369 152.5,22.5 Z"/></g>
<g><path style="opacity:1" fill="#e1e3e7" d="M 133.5,22.5 C 134.797,23.8488 134.63,25.1821 133,26.5C 127.815,25.2815 123.315,26.6149 119.5,30.5C 120.203,28.2843 121.536,26.451 123.5,25C 126.952,24.1153 130.286,23.282 133.5,22.5 Z"/></g>
<g><path style="opacity:1" fill="#597dc9" d="M 87.5,24.5 C 88.552,24.3505 89.552,24.5172 90.5,25C 87.2473,26.0365 83.914,26.7031 80.5,27C 79.244,27.4169 78.5774,28.2502 78.5,29.5C 78.5,30.1667 78.5,30.8333 78.5,31.5C 78.5,32.8333 78.5,34.1667 78.5,35.5C 80.4147,35.2155 82.0813,35.5489 83.5,36.5C 81.8333,36.5 80.1667,36.5 78.5,36.5C 78.2053,38.7354 78.5386,40.7354 79.5,42.5C 79.5,43.1667 79.5,43.8333 79.5,44.5C 79.5,45.5 79.5,46.5 79.5,47.5C 77.9886,44.4557 77.322,41.1224 77.5,37.5C 75.901,37.7678 74.5676,37.4345 73.5,36.5C 74.8333,36.5 76.1667,36.5 77.5,36.5C 77.6641,33.8127 77.4974,31.146 77,28.5C 75.9326,27.8095 74.7659,27.3095 73.5,27C 74.7375,26.7679 75.7375,26.2679 76.5,25.5C 79.8358,24.9437 83.5024,24.6104 87.5,24.5 Z"/></g>
<g><path style="opacity:1" fill="#d5dae6" d="M 78.5,29.5 C 78.5774,28.2502 79.244,27.4169 80.5,27C 83.914,26.7031 87.2473,26.0365 90.5,25C 89.552,24.5172 88.552,24.3505 87.5,24.5C 89.2184,23.776 91.0517,23.1094 93,22.5C 93.7805,23.9437 93.6139,25.277 92.5,26.5C 87.9974,28.2672 83.3308,29.2672 78.5,29.5 Z"/></g>
<g><path style="opacity:1" fill="#6283cb" d="M 111.5,26.5 C 111.5,26.8333 111.5,27.1667 111.5,27.5C 108.302,26.9644 105.635,27.631 103.5,29.5C 103.5,31.1667 103.5,32.8333 103.5,34.5C 103.821,36.0481 104.821,36.7148 106.5,36.5C 105.791,37.404 104.791,37.7373 103.5,37.5C 103.185,41.3714 103.518,45.0381 104.5,48.5C 104.5,48.8333 104.5,49.1667 104.5,49.5C 102.539,42.9131 101.872,35.9131 102.5,28.5C 102.167,27.8333 101.833,27.1667 101.5,26.5C 104.936,25.2185 108.269,25.2185 111.5,26.5 Z"/></g>
<g><path style="opacity:1" fill="#8ca3d2" d="M 101.5,26.5 C 101.833,27.1667 102.167,27.8333 102.5,28.5C 102.167,28.5 101.833,28.5 101.5,28.5C 99.323,28.5861 97.323,29.2528 95.5,30.5C 94.537,30.0302 94.537,29.3635 95.5,28.5C 97.2143,27.2616 99.2143,26.595 101.5,26.5 Z"/></g>
<g><path style="opacity:1" fill="#cfd4da" d="M 111.5,27.5 C 114.068,31.0162 113.068,33.3496 108.5,34.5C 109.8,33.399 110.3,32.0657 110,30.5C 107.959,29.5769 105.792,29.2436 103.5,29.5C 105.635,27.631 108.302,26.9644 111.5,27.5 Z"/></g>
<g><path style="opacity:1" fill="#7a94d0" d="M 133.5,22.5 C 130.286,23.282 126.952,24.1153 123.5,25C 121.536,26.451 120.203,28.2843 119.5,30.5C 123.852,33.191 128.519,35.5243 133.5,37.5C 135.086,39.1727 135.753,41.1727 135.5,43.5C 131.846,49.4175 126.846,50.9175 120.5,48C 121.094,47.5357 121.761,47.369 122.5,47.5C 124.167,47.5 125.833,47.5 127.5,47.5C 131.803,47.0369 133.636,44.7035 133,40.5C 131.992,38.741 130.492,37.5743 128.5,37C 125.21,36.7468 122.21,35.7468 119.5,34C 117.771,32.2111 117.104,30.0444 117.5,27.5C 121.443,23.446 126.276,21.1126 132,20.5C 132.717,21.0442 133.217,21.7109 133.5,22.5 Z"/></g>
<g><path style="opacity:1" fill="#6f8ccb" d="M 152.5,22.5 C 153.239,22.369 153.906,22.5357 154.5,23C 150.321,24.6814 147.321,27.5147 145.5,31.5C 145.672,32.4916 145.338,33.1583 144.5,33.5C 143.272,34.3065 142.272,35.3065 141.5,36.5C 142.623,32.3713 144.623,28.7046 147.5,25.5C 148.401,23.2729 150.067,22.2729 152.5,22.5 Z"/></g>
<g><path style="opacity:1" fill="#7c95d1" d="M 188.5,29.5 C 186.056,31.0723 183.39,32.5723 180.5,34C 179.663,35.0113 179.33,36.1779 179.5,37.5C 178.566,36.4324 178.232,35.099 178.5,33.5C 181.1,30.5397 184.433,29.2063 188.5,29.5 Z"/></g>
<g><path style="opacity:1" fill="#92a7d6" d="M 260.5,33.5 C 259.842,32.6016 259.176,31.6016 258.5,30.5C 257.478,30.8555 256.811,31.5222 256.5,32.5C 256.5,33.1667 256.167,33.5 255.5,33.5C 255.167,33.5 254.833,33.5 254.5,33.5C 254.5,33.1667 254.5,32.8333 254.5,32.5C 254.5,31.8333 254.5,31.1667 254.5,30.5C 256.859,27.8204 259.193,27.9871 261.5,31C 261.116,31.9506 260.783,32.7839 260.5,33.5 Z"/></g>
<g><path style="opacity:1" fill="#7a93d0" d="M 281.5,32.5 C 280.997,37.5 280.664,37.1667 280.5,31.5C 279.167,31.5 277.833,31.5 276.5,31.5C 276.833,30.8333 277.167,30.1667 277.5,29.5C 279.96,28.3657 281.293,29.3657 281.5,32.5 Z"/></g>
<g><path style="opacity:1" fill="#738fd0" d="M 228.5,31.5 C 228.167,35.5 227.833,35.5 227.5,31.5C 225.901,31.7678 224.568,31.4345 223.5,30.5C 225.455,29.0698 227.121,29.4031 228.5,31.5 Z"/></g>
<g><path style="opacity:1" fill="#527ac7" d="M 236.5,30.5 C 236.811,36.4871 237.145,42.1538 237.5,47.5C 237.5,47.8333 237.5,48.1667 237.5,48.5C 235.547,42.9262 234.88,36.9262 235.5,30.5C 235.833,29.1667 236.167,29.1667 236.5,30.5 Z"/></g>
<g><path style="opacity:1" fill="#5179c7" d="M 246.5,30.5 C 247.167,30.5 247.5,30.8333 247.5,31.5C 247.44,32.0431 247.107,32.3764 246.5,32.5C 241.304,31.2316 241.304,30.5649 246.5,30.5 Z"/></g>
<g><path style="opacity:1" fill="#cad0dc" d="M 76.5,25.5 C 75.7375,26.2679 74.7375,26.7679 73.5,27C 74.7659,27.3095 75.9326,27.8095 77,28.5C 77.4974,31.146 77.6641,33.8127 77.5,36.5C 76.1667,36.5 74.8333,36.5 73.5,36.5C 74.3686,34.283 74.702,31.9496 74.5,29.5C 73.5,29.5 72.5,29.5 71.5,29.5C 71.3838,26.0897 73.0504,24.7564 76.5,25.5 Z"/></g>
<g><path style="opacity:1" fill="#819ad0" d="M 111.5,26.5 C 113.027,26.427 114.027,27.0937 114.5,28.5C 114.5,29.5 114.5,30.5 114.5,31.5C 114.5,31.8333 114.5,32.1667 114.5,32.5C 113.167,33.1667 112.167,34.1667 111.5,35.5C 109.883,36.038 108.216,36.3713 106.5,36.5C 104.821,36.7148 103.821,36.0481 103.5,34.5C 105.099,35.562 106.766,35.562 108.5,34.5C 113.068,33.3496 114.068,31.0162 111.5,27.5C 111.5,27.1667 111.5,26.8333 111.5,26.5 Z"/></g>
<g><path style="opacity:1" fill="#7a95d1" d="M 163.5,54.5 C 163.44,55.0431 163.107,55.3764 162.5,55.5C 161.67,49.5275 161.17,43.5275 161,37.5C 159.878,39.4068 159.045,41.4068 158.5,43.5C 157.66,45.8525 156.326,47.8525 154.5,49.5C 154.5,48.8333 154.167,48.5 153.5,48.5C 155.948,44.4414 158.281,40.2747 160.5,36C 156.613,36.3459 152.78,37.1793 149,38.5C 148.536,37.9056 148.369,37.2389 148.5,36.5C 152.814,34.9579 157.314,33.6246 162,32.5C 163.059,32.6301 163.892,33.1301 164.5,34C 163.521,40.7445 163.188,47.5778 163.5,54.5 Z"/></g>
<g><path style="opacity:1" fill="#dde1e8" d="M 188.5,29.5 C 189.434,30.5676 189.768,31.901 189.5,33.5C 186.107,33.0617 183.107,33.8951 180.5,36C 181.056,36.3826 181.389,36.8826 181.5,37.5C 180.833,37.5 180.167,37.5 179.5,37.5C 179.33,36.1779 179.663,35.0113 180.5,34C 183.39,32.5723 186.056,31.0723 188.5,29.5 Z"/></g>
<g><path style="opacity:1" fill="#9fb0d6" d="M 223.5,30.5 C 224.568,31.4345 225.901,31.7678 227.5,31.5C 227.833,35.5 228.167,35.5 228.5,31.5C 229.451,32.9187 229.784,34.5853 229.5,36.5C 229.824,40.5546 229.491,44.5546 228.5,48.5C 227.676,45.2152 227.176,41.8818 227,38.5C 226.617,39.056 226.117,39.3893 225.5,39.5C 225.5,38.8333 225.5,38.1667 225.5,37.5C 225.657,36.1266 225.49,34.7932 225,33.5C 223.385,34.3862 221.885,35.3862 220.5,36.5C 219.167,37.5 217.833,38.5 216.5,39.5C 215.833,39.8333 215.167,40.1667 214.5,40.5C 216.105,35.8955 219.105,32.5622 223.5,30.5 Z"/></g>
<g><path style="opacity:1" fill="#e8eaec" d="M 260.5,33.5 C 260.631,34.3764 260.298,35.0431 259.5,35.5C 258.265,34.6602 257.265,33.6602 256.5,32.5C 256.811,31.5222 257.478,30.8555 258.5,30.5C 259.176,31.6016 259.842,32.6016 260.5,33.5 Z"/></g>
<g><path style="opacity:1" fill="#f5f6f8" d="M 114.5,32.5 C 114.5,34.5 113.5,35.5 111.5,35.5C 112.167,34.1667 113.167,33.1667 114.5,32.5 Z"/></g>
<g><path style="opacity:1" fill="#89a0d0" d="M 208.5,31.5 C 206.197,35.774 202.531,38.1073 197.5,38.5C 198.625,37.3478 198.625,36.3478 197.5,35.5C 198.548,33.0673 199.214,33.0673 199.5,35.5C 199.833,36.8333 200.167,36.8333 200.5,35.5C 201.833,35.1667 203.167,34.8333 204.5,34.5C 205.478,34.189 206.145,33.5223 206.5,32.5C 204.865,31.3192 203.198,31.3192 201.5,32.5C 200.537,32.0302 200.537,31.3635 201.5,30.5C 202.274,29.8529 203.274,29.5195 204.5,29.5C 206.355,29.3402 207.688,30.0069 208.5,31.5 Z M 204.5,34.5 C 203.167,34.8333 201.833,35.1667 200.5,35.5C 201.538,33.4805 202.872,33.1472 204.5,34.5 Z"/></g>
<g><path style="opacity:1" fill="#a4b5d9" d="M 78.5,31.5 C 79.404,32.209 79.7373,33.209 79.5,34.5C 81.5,34.5 83.5,34.5 85.5,34.5C 86.8474,33.9717 88.1807,33.805 89.5,34C 87.7128,35.3187 85.7128,36.152 83.5,36.5C 82.0813,35.5489 80.4147,35.2155 78.5,35.5C 78.5,34.1667 78.5,32.8333 78.5,31.5 Z"/></g>
<g><path style="opacity:1" fill="#d4dced" d="M 144.5,33.5 C 144.008,35.8185 143.008,37.8185 141.5,39.5C 141.5,38.5 141.5,37.5 141.5,36.5C 142.272,35.3065 143.272,34.3065 144.5,33.5 Z"/></g>
<g><path style="opacity:1" fill="#5279c7" d="M 197.5,35.5 C 198.625,36.3478 198.625,37.3478 197.5,38.5C 197.198,41.0593 197.532,43.3926 198.5,45.5C 199.833,45.8333 201.167,46.1667 202.5,46.5C 204.347,46.2342 205.014,46.5675 204.5,47.5C 200.712,49.1786 197.879,48.1786 196,44.5C 195.404,41.3137 195.904,38.3137 197.5,35.5 Z"/></g>
<g><path style="opacity:1" fill="#dde2ee" d="M 254.5,33.5 C 254.833,33.5 255.167,33.5 255.5,33.5C 255.008,35.8185 254.008,37.8185 252.5,39.5C 252.604,37.2972 253.27,35.2972 254.5,33.5 Z"/></g>
<g><path style="opacity:1" fill="#91a7d6" d="M 276.5,31.5 C 276.5,31.8333 276.5,32.1667 276.5,32.5C 276.5,32.8333 276.5,33.1667 276.5,33.5C 273.882,37.7405 271.548,42.0738 269.5,46.5C 269.19,45.2617 268.69,45.2617 268,46.5C 267.517,45.552 267.351,44.552 267.5,43.5C 268.496,43.5858 269.329,43.2524 270,42.5C 271.172,38.1417 273.339,34.475 276.5,31.5 Z"/></g>
<g><path style="opacity:1" fill="#dbe0e9" d="M 79.5,42.5 C 78.5386,40.7354 78.2053,38.7354 78.5,36.5C 80.1667,36.5 81.8333,36.5 83.5,36.5C 85.7128,36.152 87.7128,35.3187 89.5,34C 88.1807,33.805 86.8474,33.9717 85.5,34.5C 86.6354,32.7868 88.302,32.1201 90.5,32.5C 90.67,33.8221 90.3366,34.9887 89.5,36C 86.3924,37.7585 83.059,38.5919 79.5,38.5C 79.5,39.8333 79.5,41.1667 79.5,42.5 Z"/></g>
<g><path style="opacity:1" fill="#6686cb" d="M 254.5,32.5 C 254.5,32.8333 254.5,33.1667 254.5,33.5C 253.27,35.2972 252.604,37.2972 252.5,39.5C 252.643,41.2624 252.309,42.9291 251.5,44.5C 252.005,45.9185 253.005,46.5852 254.5,46.5C 255.167,46.5 255.833,46.5 256.5,46.5C 252.961,49.5975 250.628,48.7642 249.5,44C 250.256,41.1439 251.089,38.3106 252,35.5C 252.377,34.0577 253.21,33.0577 254.5,32.5 Z"/></g>
<g><path style="opacity:1" fill="#d9dee7" d="M 267.5,25.5 C 268.326,29.9819 268.826,34.6486 269,39.5C 270.413,36.3388 272.08,33.3388 274,30.5C 275.011,29.6634 276.178,29.33 277.5,29.5C 277.167,30.1667 276.833,30.8333 276.5,31.5C 273.339,34.475 271.172,38.1417 270,42.5C 269.329,43.2524 268.496,43.5858 267.5,43.5C 267.5,37.5 267.5,31.5 267.5,25.5 Z"/></g>
<g><path style="opacity:1" fill="#ecedee" d="M 276.5,33.5 C 276.5,33.1667 276.5,32.8333 276.5,32.5C 277.496,32.4142 278.329,32.7476 279,33.5C 279.499,39.1569 279.666,44.8236 279.5,50.5C 280.5,50.5 281.5,50.5 282.5,50.5C 280.58,51.9405 278.913,51.6071 277.5,49.5C 278.61,44.8887 278.777,40.222 278,35.5C 277.722,34.5842 277.222,33.9175 276.5,33.5 Z"/></g>
<g><path style="opacity:1" fill="#d8dce3" d="M 117.5,27.5 C 117.104,30.0444 117.771,32.2111 119.5,34C 122.21,35.7468 125.21,36.7468 128.5,37C 130.492,37.5743 131.992,38.741 133,40.5C 133.636,44.7035 131.803,47.0369 127.5,47.5C 130.183,46.3305 131.349,44.3305 131,41.5C 127.051,39.2901 122.884,37.4568 118.5,36C 116.93,34.6032 115.596,33.1032 114.5,31.5C 114.5,30.5 114.5,29.5 114.5,28.5C 115.609,28.4431 116.609,28.1098 117.5,27.5 Z"/></g>
<g><path style="opacity:1" fill="#e5e8eb" d="M 208.5,31.5 C 209.803,33.7569 209.136,35.5902 206.5,37C 204.045,38.3116 201.545,39.4782 199,40.5C 198.506,42.1341 198.34,43.8008 198.5,45.5C 197.532,43.3926 197.198,41.0593 197.5,38.5C 202.531,38.1073 206.197,35.774 208.5,31.5 Z"/></g>
<g><path style="opacity:1" fill="#e8ebf0" d="M 220.5,36.5 C 218.322,39.5231 216.655,42.8564 215.5,46.5C 214.903,46.2648 214.57,45.7648 214.5,45C 215.32,43.1997 215.986,41.3664 216.5,39.5C 217.833,38.5 219.167,37.5 220.5,36.5 Z"/></g>
<g><path style="opacity:1" fill="#bec6d4" d="M 276.5,32.5 C 276.5,32.1667 276.5,31.8333 276.5,31.5C 277.833,31.5 279.167,31.5 280.5,31.5C 280.664,37.1667 280.997,37.5 281.5,32.5C 282.482,35.9619 282.815,39.6286 282.5,43.5C 281.883,43.3893 281.383,43.056 281,42.5C 280.833,43.6667 280.667,44.8333 280.5,46C 280.608,47.6811 281.275,48.8478 282.5,49.5C 282.5,49.8333 282.5,50.1667 282.5,50.5C 281.5,50.5 280.5,50.5 279.5,50.5C 279.666,44.8236 279.499,39.1569 279,33.5C 278.329,32.7476 277.496,32.4142 276.5,32.5 Z"/></g>
<g><path style="opacity:1" fill="#bfcbe2" d="M 246.5,30.5 C 241.304,30.5649 241.304,31.2316 246.5,32.5C 247.107,32.3764 247.44,32.0431 247.5,31.5C 248.555,33.1117 248.055,34.445 246,35.5C 244.166,33.2438 242.499,33.2438 241,35.5C 238.369,39.0888 237.203,43.0888 237.5,47.5C 237.145,42.1538 236.811,36.4871 236.5,30.5C 237.29,31.6085 237.79,32.9419 238,34.5C 239.609,29.9795 242.443,28.6461 246.5,30.5 Z"/></g>
<g><path style="opacity:1" fill="#94a8d4" d="M 179.5,37.5 C 180.167,37.5 180.833,37.5 181.5,37.5C 184.899,38.0164 188.232,38.8497 191.5,40C 192.811,42.2735 192.811,44.4402 191.5,46.5C 190.5,47.1667 189.5,47.8333 188.5,48.5C 188.5,48.1667 188.5,47.8333 188.5,47.5C 190.081,45.8583 190.747,43.8583 190.5,41.5C 186.32,41.2179 182.653,39.8846 179.5,37.5 Z"/></g>
<g><path style="opacity:1" fill="#e2e6ef" d="M 225.5,37.5 C 225.5,38.1667 225.5,38.8333 225.5,39.5C 224.833,39.8333 224.167,40.1667 223.5,40.5C 223.427,38.9731 224.094,37.9731 225.5,37.5 Z"/></g>
<g><path style="opacity:1" fill="#b5becd" d="M 101.5,28.5 C 101.833,28.5 102.167,28.5 102.5,28.5C 101.872,35.9131 102.539,42.9131 104.5,49.5C 104.5,49.8333 104.5,50.1667 104.5,50.5C 103.5,50.5 102.5,50.5 101.5,50.5C 101.5,43.1667 101.5,35.8333 101.5,28.5 Z"/></g>
<g><path style="opacity:1" fill="#d5dded" d="M 111.5,35.5 C 109.911,37.3056 107.911,38.6389 105.5,39.5C 104.516,42.4281 104.183,45.4281 104.5,48.5C 103.518,45.0381 103.185,41.3714 103.5,37.5C 104.791,37.7373 105.791,37.404 106.5,36.5C 108.216,36.3713 109.883,36.038 111.5,35.5 Z"/></g>
<g><path style="opacity:1" fill="#e0e3e6" d="M 178.5,33.5 C 178.232,35.099 178.566,36.4324 179.5,37.5C 182.653,39.8846 186.32,41.2179 190.5,41.5C 190.747,43.8583 190.081,45.8583 188.5,47.5C 187.5,47.5 186.5,47.5 185.5,47.5C 186.66,46.735 187.66,45.735 188.5,44.5C 184.891,42.5656 181.058,40.8989 177,39.5C 176.059,37.0106 176.559,35.0106 178.5,33.5 Z"/></g>
<g><path style="opacity:1" fill="#e9ebef" d="M 229.5,36.5 C 230.647,40.6463 230.814,44.9796 230,49.5C 228.989,50.3366 227.822,50.67 226.5,50.5C 226.664,47.8127 226.497,45.146 226,42.5C 223.063,48.0477 218.563,50.5477 212.5,50C 210.867,46.2846 211.534,43.1179 214.5,40.5C 213.735,43.0961 213.401,45.7628 213.5,48.5C 215.565,48.4828 217.565,48.1495 219.5,47.5C 222.471,45.5574 224.471,42.8908 225.5,39.5C 226.117,39.3893 226.617,39.056 227,38.5C 227.176,41.8818 227.676,45.2152 228.5,48.5C 229.491,44.5546 229.824,40.5546 229.5,36.5 Z"/></g>
<g><path style="opacity:1" fill="#e6e7e9" d="M 95.5,28.5 C 94.537,29.3635 94.537,30.0302 95.5,30.5C 97.323,29.2528 99.323,28.5861 101.5,28.5C 101.5,35.8333 101.5,43.1667 101.5,50.5C 102.5,50.5 103.5,50.5 104.5,50.5C 103.432,51.4345 102.099,51.7678 100.5,51.5C 100.185,44.6915 99.6851,37.6915 99,30.5C 97.0876,31.6919 95.0876,32.6919 93,33.5C 91.1608,30.7831 91.9941,29.1164 95.5,28.5 Z"/></g>
<g><path style="opacity:1" fill="#e2e5ea" d="M 153.5,48.5 C 151.637,50.7053 149.303,52.0387 146.5,52.5C 151.012,49.177 154.345,44.8437 156.5,39.5C 156,39.1667 155.5,38.8333 155,38.5C 151.974,39.8718 148.807,40.5385 145.5,40.5C 145.5,39.1667 145.5,37.8333 145.5,36.5C 146.5,36.5 147.5,36.5 148.5,36.5C 148.369,37.2389 148.536,37.9056 149,38.5C 152.78,37.1793 156.613,36.3459 160.5,36C 158.281,40.2747 155.948,44.4414 153.5,48.5 Z"/></g>
<g><path style="opacity:1" fill="#dde0e5" d="M 235.5,30.5 C 234.88,36.9262 235.547,42.9262 237.5,48.5C 236.817,50.1765 235.483,50.8432 233.5,50.5C 232.874,43.4163 233.541,36.7496 235.5,30.5 Z"/></g>
<g><path style="opacity:1" fill="#4472c4" d="M 282.5,43.5 C 282.5,45.5 282.5,47.5 282.5,49.5C 281.275,48.8478 280.608,47.6811 280.5,46C 280.667,44.8333 280.833,43.6667 281,42.5C 281.383,43.056 281.883,43.3893 282.5,43.5 Z"/></g>
<g><path style="opacity:1" fill="#9cadd6" d="M 225.5,39.5 C 224.471,42.8908 222.471,45.5574 219.5,47.5C 219.158,46.6618 218.492,46.3284 217.5,46.5C 219.833,44.8333 221.833,42.8333 223.5,40.5C 224.167,40.1667 224.833,39.8333 225.5,39.5 Z"/></g>
<g><path style="opacity:1" fill="#b3c1de" d="M 260.5,43.5 C 259.167,44.5 257.833,45.5 256.5,46.5C 255.833,46.5 255.167,46.5 254.5,46.5C 256.61,43.3808 259.277,41.0475 262.5,39.5C 262.771,41.3797 262.104,42.713 260.5,43.5 Z"/></g>
<g><path style="opacity:1" fill="#dfe1e5" d="M 265.5,21.5 C 266.255,31.1337 266.755,40.8004 267,50.5C 267.383,49.944 267.883,49.6107 268.5,49.5C 268.306,51.9118 266.973,52.9118 264.5,52.5C 264.165,42.9647 263.498,33.4647 262.5,24C 262.748,22.2509 263.748,21.4176 265.5,21.5 Z"/></g>
<g><path style="opacity:1" fill="#dee2e7" d="M 254.5,30.5 C 254.5,31.1667 254.5,31.8333 254.5,32.5C 253.21,33.0577 252.377,34.0577 252,35.5C 251.089,38.3106 250.256,41.1439 249.5,44C 250.628,48.7642 252.961,49.5975 256.5,46.5C 257.833,45.5 259.167,44.5 260.5,43.5C 258.854,48.3197 255.521,50.4864 250.5,50C 249.333,49.5 248.5,48.6667 248,47.5C 247.394,40.7213 249.561,35.0547 254.5,30.5 Z"/></g>
<g><path style="opacity:1" fill="#ebedee" d="M 91.5,42.5 C 91.8432,44.4832 91.1765,45.8166 89.5,46.5C 89.1568,44.5168 89.8235,43.1834 91.5,42.5 Z"/></g>
<g><path style="opacity:1" fill="#dadee4" d="M 147.5,25.5 C 144.623,28.7046 142.623,32.3713 141.5,36.5C 139.083,41.6535 138.916,46.9868 141,52.5C 142.808,54.3959 144.975,54.8959 147.5,54C 150.233,53.0958 152.567,51.5958 154.5,49.5C 151.204,55.8093 146.204,57.6426 139.5,55C 136.76,51.2756 135.926,47.109 137,42.5C 137.91,37.3487 139.91,32.682 143,28.5C 144.129,26.8588 145.629,25.8588 147.5,25.5 Z"/></g>
<g><path style="opacity:1" fill="#91a6d5" d="M 91.5,42.5 C 92.6491,42.7911 93.3158,43.6244 93.5,45C 93.472,46.0698 93.1386,46.9032 92.5,47.5C 88.6895,49.3097 84.6895,49.8097 80.5,49C 79.944,48.6174 79.6107,48.1174 79.5,47.5C 79.5,46.5 79.5,45.5 79.5,44.5C 82.1149,47.7201 85.4482,48.3868 89.5,46.5C 91.1765,45.8166 91.8432,44.4832 91.5,42.5 Z"/></g>
<g><path style="opacity:1" fill="#dadde3" d="M 73.5,36.5 C 74.5676,37.4345 75.901,37.7678 77.5,37.5C 77.322,41.1224 77.9886,44.4557 79.5,47.5C 79.6107,48.1174 79.944,48.6174 80.5,49C 84.6895,49.8097 88.6895,49.3097 92.5,47.5C 91.5475,49.61 89.8808,50.7767 87.5,51C 78.5026,53.2513 74.336,49.7513 75,40.5C 73.8831,40.3349 72.7164,40.0016 71.5,39.5C 70.6143,38.675 70.281,37.675 70.5,36.5C 71.5,36.5 72.5,36.5 73.5,36.5 Z"/></g>
<g><path style="opacity:1" fill="#dadfe8" d="M 201.5,30.5 C 200.537,31.3635 200.537,32.0302 201.5,32.5C 203.198,31.3192 204.865,31.3192 206.5,32.5C 206.145,33.5223 205.478,34.189 204.5,34.5C 202.872,33.1472 201.538,33.4805 200.5,35.5C 200.167,35.5 199.833,35.5 199.5,35.5C 199.214,33.0673 198.548,33.0673 197.5,35.5C 195.904,38.3137 195.404,41.3137 196,44.5C 197.879,48.1786 200.712,49.1786 204.5,47.5C 205.014,46.5675 204.347,46.2342 202.5,46.5C 205.167,44.8266 207.167,42.4933 208.5,39.5C 209.325,38.6143 210.325,38.281 211.5,38.5C 210.208,46.6382 205.541,50.4715 197.5,50C 192.481,44.7909 192.315,39.2909 197,33.5C 198.129,31.8588 199.629,30.8588 201.5,30.5 Z"/></g>
<g><path style="opacity:1" fill="#597ec7" d="M 216.5,39.5 C 215.986,41.3664 215.32,43.1997 214.5,45C 214.57,45.7648 214.903,46.2648 215.5,46.5C 216.167,46.5 216.833,46.5 217.5,46.5C 218.492,46.3284 219.158,46.6618 219.5,47.5C 217.565,48.1495 215.565,48.4828 213.5,48.5C 213.401,45.7628 213.735,43.0961 214.5,40.5C 215.167,40.1667 215.833,39.8333 216.5,39.5 Z"/></g>
<g><path style="opacity:1" fill="#e2e5eb" d="M 135.5,43.5 C 134.761,47.4078 132.428,49.9078 128.5,51C 125.5,51.6667 122.5,51.6667 119.5,51C 118.061,48.695 118.561,46.8616 121,45.5C 121.717,46.0442 122.217,46.7109 122.5,47.5C 121.761,47.369 121.094,47.5357 120.5,48C 126.846,50.9175 131.846,49.4175 135.5,43.5 Z"/></g>
<g><path style="opacity:1" fill="#6d8ace" d="M 141.5,36.5 C 141.5,37.5 141.5,38.5 141.5,39.5C 141.335,43.1817 141.501,46.8484 142,50.5C 143.11,52.0368 144.61,52.7035 146.5,52.5C 149.303,52.0387 151.637,50.7053 153.5,48.5C 154.167,48.5 154.5,48.8333 154.5,49.5C 152.567,51.5958 150.233,53.0958 147.5,54C 144.975,54.8959 142.808,54.3959 141,52.5C 138.916,46.9868 139.083,41.6535 141.5,36.5 Z"/></g>
<g><path style="opacity:1" fill="#dadee3" d="M 163.5,54.5 C 164.746,56.0229 164.246,57.0229 162,57.5C 160.347,57.1802 159.347,56.1802 159,54.5C 159.497,50.6793 159.331,47.0127 158.5,43.5C 159.045,41.4068 159.878,39.4068 161,37.5C 161.17,43.5275 161.67,49.5275 162.5,55.5C 163.107,55.3764 163.44,55.0431 163.5,54.5 Z"/></g>
<g><path style="opacity:1" fill="#e6e9ed" d="M 182.5,47.5 C 181.624,47.3691 180.957,47.7025 180.5,48.5C 183.199,49.7294 185.865,49.7294 188.5,48.5C 189.5,47.8333 190.5,47.1667 191.5,46.5C 190.781,48.8881 189.115,50.3881 186.5,51C 183.854,51.4974 181.187,51.6641 178.5,51.5C 177.839,47.4828 179.172,46.1495 182.5,47.5 Z"/></g>
<g><path style="opacity:1" fill="#6485c9" d="M 182.5,47.5 C 183.5,47.5 184.5,47.5 185.5,47.5C 186.5,47.5 187.5,47.5 188.5,47.5C 188.5,47.8333 188.5,48.1667 188.5,48.5C 185.865,49.7294 183.199,49.7294 180.5,48.5C 180.957,47.7025 181.624,47.3691 182.5,47.5 Z"/></g>
<g><path style="opacity:1" fill="#fefefd" d="M 124.5,66.5 C 125.601,65.4017 126.934,65.235 128.5,66C 127.207,66.49 125.873,66.6567 124.5,66.5 Z"/></g>
<g><path style="opacity:1" fill="#fcfcfc" d="M 135.5,66.5 C 141.319,65.3475 147.319,65.1808 153.5,66C 147.509,66.4995 141.509,66.6662 135.5,66.5 Z"/></g>
<g><path style="opacity:1" fill="#eeeced" d="M 165.5,65.5 C 165.5,66.1667 165.167,66.5 164.5,66.5C 161.098,66.3424 157.764,66.6758 154.5,67.5C 157.684,65.5864 161.351,64.9197 165.5,65.5 Z"/></g>
<g><path style="opacity:1" fill="#ebeaec" d="M 174.5,65.5 C 178.702,65.1832 182.702,65.5166 186.5,66.5C 185.833,66.5 185.5,66.8333 185.5,67.5C 182.946,66.612 180.279,66.2786 177.5,66.5C 176.209,66.7373 175.209,66.404 174.5,65.5 Z"/></g>
<g><path style="opacity:1" fill="#fffdfe" d="M 213.5,66.5 C 214.946,65.3871 216.613,65.2204 218.5,66C 216.866,66.4935 215.199,66.6602 213.5,66.5 Z"/></g>
<g><path style="opacity:1" fill="#616368" d="M 177.5,66.5 C 180.279,66.2786 182.946,66.612 185.5,67.5C 185.833,67.5 186.167,67.5 186.5,67.5C 187.167,67.8333 187.833,68.1667 188.5,68.5C 188.5,68.8333 188.5,69.1667 188.5,69.5C 184.686,68.6322 181.019,67.6322 177.5,66.5 Z"/></g>
<g><path style="opacity:1" fill="#f5f6f5" d="M 153.5,67.5 C 151.302,69.3969 148.636,70.3969 145.5,70.5C 143.664,72.588 141.331,73.9213 138.5,74.5C 137.151,73.3559 136.817,73.3559 137.5,74.5C 137.167,75.1667 136.833,75.8333 136.5,76.5C 123.111,86.5982 114.778,99.9316 111.5,116.5C 112.307,103.827 112.807,91.4939 113,79.5C 116.135,78.2006 119.301,78.2006 122.5,79.5C 123.5,79 124.5,78.5 125.5,78C 120.984,69.5178 123.318,66.1845 132.5,68C 133.667,68.5 134.5,69.3333 135,70.5C 135.483,69.552 135.649,68.552 135.5,67.5C 141.5,67.5 147.5,67.5 153.5,67.5 Z"/></g>
<g><path style="opacity:1" fill="#f4f4f4" d="M 211.5,73.5 C 211.082,74.2216 210.416,74.7216 209.5,75C 210.478,76.9751 211.811,78.6418 213.5,80C 213.257,80.9021 212.923,81.7354 212.5,82.5C 210.251,81.9202 208.585,80.5869 207.5,78.5C 201.523,74.6777 195.19,71.6777 188.5,69.5C 188.5,69.1667 188.5,68.8333 188.5,68.5C 187.833,68.1667 187.167,67.8333 186.5,67.5C 186.5,67.1667 186.5,66.8333 186.5,66.5C 194.755,65.3656 203.088,65.199 211.5,66C 194.179,66.8318 194.179,67.3318 211.5,67.5C 211.5,69.5 211.5,71.5 211.5,73.5 Z M 188.5,68.5 C 189.204,66.6558 190.537,66.1558 192.5,67C 191.099,67.4101 189.766,67.9101 188.5,68.5 Z"/></g>
<g><path style="opacity:1" fill="#f8f8f8" d="M 231.5,104.5 C 230.833,105.833 230.167,107.167 229.5,108.5C 228.493,108.452 228.16,109.452 228.5,111.5C 227.052,106.483 225.218,101.483 223,96.5C 218.938,92.2692 215.438,87.6025 212.5,82.5C 212.923,81.7354 213.257,80.9021 213.5,80C 211.811,78.6418 210.478,76.9751 209.5,75C 210.416,74.7216 211.082,74.2216 211.5,73.5C 212.363,74.463 213.03,74.463 213.5,73.5C 212.652,71.5914 212.318,69.5914 212.5,67.5C 214.5,67.5 216.5,67.5 218.5,67.5C 218.5,71.5 218.5,75.5 218.5,79.5C 222.329,79.0726 225.996,79.0726 229.5,79.5C 229.703,84.6477 230.703,89.6477 232.5,94.5C 231.931,97.9843 231.598,101.318 231.5,104.5 Z M 218.5,80.5 C 220.505,81.0388 222.505,81.7055 224.5,82.5C 222.828,82.3874 220.994,82.7208 219,83.5C 218.517,82.552 218.351,81.552 218.5,80.5 Z"/></g>
<g><path style="opacity:1" fill="#fdfdfd" d="M 238.5,67.5 C 240.167,67.5 241.833,67.5 243.5,67.5C 243.5,69.1667 243.5,70.8333 243.5,72.5C 241.833,72.5 240.167,72.5 238.5,72.5C 238.5,74.8333 238.5,77.1667 238.5,79.5C 236.167,79.5 233.833,79.5 231.5,79.5C 231.5,77.1667 231.5,74.8333 231.5,72.5C 235.833,73.3147 238.166,71.648 238.5,67.5 Z"/></g>
<g><path style="opacity:1" fill="#1e2a37" d="M 165.5,65.5 C 168.5,65.5 171.5,65.5 174.5,65.5C 175.209,66.404 176.209,66.7373 177.5,66.5C 181.019,67.6322 184.686,68.6322 188.5,69.5C 195.19,71.6777 201.523,74.6777 207.5,78.5C 208.585,80.5869 210.251,81.9202 212.5,82.5C 215.438,87.6025 218.938,92.2692 223,96.5C 225.218,101.483 227.052,106.483 228.5,111.5C 228.232,113.099 228.566,114.432 229.5,115.5C 229.5,115.833 229.5,116.167 229.5,116.5C 229.5,121.833 229.5,127.167 229.5,132.5C 229.5,133.167 229.5,133.833 229.5,134.5C 227.954,136.882 227.287,139.549 227.5,142.5C 227.5,142.833 227.5,143.167 227.5,143.5C 225.755,145.033 224.755,147.033 224.5,149.5C 223.596,150.209 223.263,151.209 223.5,152.5C 220.826,153.499 220.159,155.166 221.5,157.5C 221.167,157.5 220.833,157.5 220.5,157.5C 220.167,157.5 219.833,157.5 219.5,157.5C 219.5,156.5 219.5,155.5 219.5,154.5C 224.029,145.719 226.696,136.386 227.5,126.5C 220.5,126.5 213.5,126.5 206.5,126.5C 206.5,125.833 206.5,125.167 206.5,124.5C 213.5,124.5 220.5,124.5 227.5,124.5C 227.81,121.287 227.477,118.287 226.5,115.5C 225.091,103.582 219.924,93.5823 211,85.5C 208.312,87.364 205.812,89.364 203.5,91.5C 202.167,91.8333 200.833,92.1667 199.5,92.5C 198.209,92.7373 197.209,92.404 196.5,91.5C 195.833,92.5 195.167,93.5 194.5,94.5C 192.673,88.1504 189.006,82.9837 183.5,79C 180.151,75.9955 176.484,73.4955 172.5,71.5C 171.167,70.1667 169.833,70.1667 168.5,71.5C 165.962,69.481 162.962,68.3143 159.5,68C 161.382,67.8019 163.048,67.3019 164.5,66.5C 165.167,66.5 165.5,66.1667 165.5,65.5 Z"/></g>
<g><path style="opacity:1" fill="#91bcd8" d="M 196.5,91.5 C 190.996,81.8295 183.329,74.3295 173.5,69C 185.349,69.2828 196.015,72.9494 205.5,80C 207.329,81.1133 208.163,82.6133 208,84.5C 204.79,87.8801 200.957,90.2134 196.5,91.5 Z"/></g>
<g><path style="opacity:1" fill="#91c2e0" d="M 162.5,98.5 C 162.167,98.5 161.833,98.5 161.5,98.5C 156.001,96.5555 150.668,94.2222 145.5,91.5C 150.198,83.1359 156.865,76.8026 165.5,72.5C 166.498,81.1411 166.831,89.8078 166.5,98.5C 165.167,98.5 163.833,98.5 162.5,98.5 Z"/></g>
<g><path style="opacity:1" fill="#92bede" d="M 172.5,71.5 C 176.484,73.4955 180.151,75.9955 183.5,79C 189.006,82.9837 192.673,88.1504 194.5,94.5C 188.715,95.4304 183.049,96.7637 177.5,98.5C 174.833,98.5 172.167,98.5 169.5,98.5C 169.5,98.1667 169.5,97.8333 169.5,97.5C 174.728,96.5039 180.062,95.6705 185.5,95C 185.957,94.586 186.291,94.086 186.5,93.5C 185.264,91.6889 185.264,89.8556 186.5,88C 186.333,86.5 185.5,85.6667 184,85.5C 180.276,86.9455 177.943,89.6122 177,93.5C 176.667,88.8333 176.333,84.1667 176,79.5C 174.818,76.2896 172.985,75.7896 170.5,78C 172.42,83.1973 173.087,88.6973 172.5,94.5C 171.5,94.5 170.5,94.5 169.5,94.5C 169.5,86.8333 169.5,79.1667 169.5,71.5C 170.5,71.5 171.5,71.5 172.5,71.5 Z"/></g>
<g><path style="opacity:1" fill="#1c3043" d="M 164.5,66.5 C 163.048,67.3019 161.382,67.8019 159.5,68C 162.962,68.3143 165.962,69.481 168.5,71.5C 168.173,80.6822 168.507,89.6822 169.5,98.5C 172.167,98.5 174.833,98.5 177.5,98.5C 172.5,99.8333 167.5,99.8333 162.5,98.5C 163.833,98.5 165.167,98.5 166.5,98.5C 166.831,89.8078 166.498,81.1411 165.5,72.5C 156.865,76.8026 150.198,83.1359 145.5,91.5C 145.167,91.5 144.833,91.5 144.5,91.5C 144.5,90.8333 144.167,90.5 143.5,90.5C 144.44,88.3875 145.606,86.3875 147,84.5C 152.366,79.5587 157.866,74.7254 163.5,70C 154.621,69.7192 146.621,72.2192 139.5,77.5C 139.631,76.7611 139.464,76.0944 139,75.5C 138.329,76.2524 137.496,76.5858 136.5,76.5C 136.833,75.8333 137.167,75.1667 137.5,74.5C 137.833,74.5 138.167,74.5 138.5,74.5C 141.331,73.9213 143.664,72.588 145.5,70.5C 148.636,70.3969 151.302,69.3969 153.5,67.5C 153.833,67.5 154.167,67.5 154.5,67.5C 157.764,66.6758 161.098,66.3424 164.5,66.5 Z"/></g>
<g><path style="opacity:1" fill="#8fbcd9" d="M 143.5,90.5 C 138.766,89.9601 135.1,87.6268 132.5,83.5C 134.266,80.7915 136.599,78.7915 139.5,77.5C 146.621,72.2192 154.621,69.7192 163.5,70C 157.866,74.7254 152.366,79.5587 147,84.5C 145.606,86.3875 144.44,88.3875 143.5,90.5 Z"/></g>
<g><path style="opacity:1" fill="#4d7892" d="M 172.5,71.5 C 171.5,71.5 170.5,71.5 169.5,71.5C 169.5,79.1667 169.5,86.8333 169.5,94.5C 169.5,95.5 169.5,96.5 169.5,97.5C 169.5,97.8333 169.5,98.1667 169.5,98.5C 168.507,89.6822 168.173,80.6822 168.5,71.5C 169.833,70.1667 171.167,70.1667 172.5,71.5 Z"/></g>
<g><path style="opacity:1" fill="#1b2630" d="M 139.5,77.5 C 136.599,78.7915 134.266,80.7915 132.5,83.5C 135.1,87.6268 138.766,89.9601 143.5,90.5C 144.167,90.5 144.5,90.8333 144.5,91.5C 144.557,92.609 144.89,93.609 145.5,94.5C 143.446,94.6347 141.779,93.968 140.5,92.5C 136.547,90 132.547,87.8333 128.5,86C 120.132,95.2361 115.465,106.069 114.5,118.5C 113.539,120.265 113.205,122.265 113.5,124.5C 118.833,124.5 124.167,124.5 129.5,124.5C 129.5,124.833 129.5,125.167 129.5,125.5C 124.167,125.5 118.833,125.5 113.5,125.5C 113.198,128.059 113.532,130.393 114.5,132.5C 115.674,142.027 119.008,150.694 124.5,158.5C 123.833,158.5 123.5,158.833 123.5,159.5C 121.204,157.599 119.371,155.266 118,152.5C 115.085,145.598 112.919,138.598 111.5,131.5C 111.5,126.5 111.5,121.5 111.5,116.5C 114.778,99.9316 123.111,86.5982 136.5,76.5C 137.496,76.5858 138.329,76.2524 139,75.5C 139.464,76.0944 139.631,76.7611 139.5,77.5 Z"/></g>
<g><path style="opacity:1" fill="#5d7479" d="M 144.5,91.5 C 144.833,91.5 145.167,91.5 145.5,91.5C 150.668,94.2222 156.001,96.5555 161.5,98.5C 156.118,97.3728 150.784,96.0394 145.5,94.5C 144.89,93.609 144.557,92.609 144.5,91.5 Z"/></g>
<g><path style="opacity:1" fill="#8bc7e5" d="M 169.5,97.5 C 169.5,96.5 169.5,95.5 169.5,94.5C 170.5,94.5 171.5,94.5 172.5,94.5C 173.087,88.6973 172.42,83.1973 170.5,78C 172.985,75.7896 174.818,76.2896 176,79.5C 176.333,84.1667 176.667,88.8333 177,93.5C 177.943,89.6122 180.276,86.9455 184,85.5C 185.5,85.6667 186.333,86.5 186.5,88C 185.264,89.8556 185.264,91.6889 186.5,93.5C 186.291,94.086 185.957,94.586 185.5,95C 180.062,95.6705 174.728,96.5039 169.5,97.5 Z"/></g>
<g><path style="opacity:1" fill="#92bed8" d="M 226.5,115.5 C 226.5,118.167 226.5,120.833 226.5,123.5C 219.833,123.5 213.167,123.5 206.5,123.5C 206.747,120.061 206.414,116.728 205.5,113.5C 205.741,111.102 205.074,109.102 203.5,107.5C 202.922,102.13 201.589,97.1303 199.5,92.5C 200.833,92.1667 202.167,91.8333 203.5,91.5C 205.812,89.364 208.312,87.364 211,85.5C 219.924,93.5823 225.091,103.582 226.5,115.5 Z"/></g>
<g><path style="opacity:1" fill="#1c231a" d="M 196.5,91.5 C 197.209,92.404 198.209,92.7373 199.5,92.5C 201.589,97.1303 202.922,102.13 203.5,107.5C 203.595,109.786 204.262,111.786 205.5,113.5C 206.414,116.728 206.747,120.061 206.5,123.5C 206.5,123.833 206.5,124.167 206.5,124.5C 206.5,125.167 206.5,125.833 206.5,126.5C 206.639,135.173 204.639,143.173 200.5,150.5C 199.833,151.5 199.167,152.5 198.5,153.5C 198.5,152.167 198.5,150.833 198.5,149.5C 198.5,149.167 198.5,148.833 198.5,148.5C 200.387,146.211 201.721,143.545 202.5,140.5C 202.998,135.848 203.331,131.181 203.5,126.5C 203.5,125.833 203.5,125.167 203.5,124.5C 203.679,118.596 203.012,112.929 201.5,107.5C 201.353,104.208 200.353,101.208 198.5,98.5C 198.586,97.5041 198.252,96.6708 197.5,96C 195.934,95.235 194.601,95.4017 193.5,96.5C 190.982,97.2638 188.649,98.2638 186.5,99.5C 185.609,100.11 184.609,100.443 183.5,100.5C 181.833,100.5 180.167,100.5 178.5,100.5C 173.167,100.5 167.833,100.5 162.5,100.5C 158.224,99.6901 153.891,99.0234 149.5,98.5C 148.71,97.5987 147.71,96.9321 146.5,96.5C 145.399,95.4017 144.066,95.235 142.5,96C 141.748,96.6708 141.414,97.5041 141.5,98.5C 139.935,100.509 138.935,102.843 138.5,105.5C 137.226,107.993 136.56,110.659 136.5,113.5C 135.539,115.265 135.205,117.265 135.5,119.5C 134.833,123.833 134.167,128.167 133.5,132.5C 133.795,130.265 133.461,128.265 132.5,126.5C 131.791,125.596 130.791,125.263 129.5,125.5C 129.5,125.167 129.5,124.833 129.5,124.5C 130.833,124.5 132.167,124.5 133.5,124.5C 133.5,121.167 133.5,117.833 133.5,114.5C 135.414,107.089 137.747,99.7554 140.5,92.5C 141.779,93.968 143.446,94.6347 145.5,94.5C 150.784,96.0394 156.118,97.3728 161.5,98.5C 161.833,98.5 162.167,98.5 162.5,98.5C 167.5,99.8333 172.5,99.8333 177.5,98.5C 183.049,96.7637 188.715,95.4304 194.5,94.5C 195.167,93.5 195.833,92.5 196.5,91.5 Z"/></g>
<g><path style="opacity:1" fill="#e7de61" d="M 149.5,98.5 C 153.891,99.0234 158.224,99.6901 162.5,100.5C 163.568,101.434 164.901,101.768 166.5,101.5C 166.5,108.833 166.5,116.167 166.5,123.5C 156.5,123.5 146.5,123.5 136.5,123.5C 136.5,120.167 136.5,116.833 136.5,113.5C 136.56,110.659 137.226,107.993 138.5,105.5C 140.268,103.492 141.934,101.326 143.5,99C 145.473,98.5045 147.473,98.3379 149.5,98.5 Z"/></g>
<g><path style="opacity:1" fill="#b3b25f" d="M 193.5,96.5 C 195.514,96.3915 197.18,97.0582 198.5,98.5C 200.353,101.208 201.353,104.208 201.5,107.5C 199.829,104.796 198.163,102.129 196.5,99.5C 193.348,98.761 190.015,98.761 186.5,99.5C 188.649,98.2638 190.982,97.2638 193.5,96.5 Z"/></g>
<g><path style="opacity:1" fill="#d1c773" d="M 146.5,96.5 C 147.71,96.9321 148.71,97.5987 149.5,98.5C 147.473,98.3379 145.473,98.5045 143.5,99C 141.934,101.326 140.268,103.492 138.5,105.5C 138.935,102.843 139.935,100.509 141.5,98.5C 142.82,97.0582 144.486,96.3915 146.5,96.5 Z"/></g>
<g><path style="opacity:1" fill="#aca275" d="M 146.5,96.5 C 144.486,96.3915 142.82,97.0582 141.5,98.5C 141.414,97.5041 141.748,96.6708 142.5,96C 144.066,95.235 145.399,95.4017 146.5,96.5 Z"/></g>
<g><path style="opacity:1" fill="#6b6c45" d="M 193.5,96.5 C 194.601,95.4017 195.934,95.235 197.5,96C 198.252,96.6708 198.586,97.5041 198.5,98.5C 197.18,97.0582 195.514,96.3915 193.5,96.5 Z"/></g>
<g><path style="opacity:1" fill="#f3e735" d="M 196.5,99.5 C 197.104,103.701 198.27,107.701 200,111.5C 201.147,115.598 200.314,119.098 197.5,122C 189.507,122.5 181.507,122.666 173.5,122.5C 171.719,117.068 171.052,111.401 171.5,105.5C 173.167,105.5 174.833,105.5 176.5,105.5C 175.564,109.735 175.231,114.069 175.5,118.5C 180.923,117.962 186.256,117.962 191.5,118.5C 191.5,114.5 191.5,110.5 191.5,106.5C 188.505,106.706 185.838,106.04 183.5,104.5C 186.993,101.057 191.326,99.39 196.5,99.5 Z"/></g>
<g><path style="opacity:1" fill="#ece84e" d="M 196.5,99.5 C 191.326,99.39 186.993,101.057 183.5,104.5C 181.097,104.448 178.764,104.781 176.5,105.5C 174.833,105.5 173.167,105.5 171.5,105.5C 171.052,111.401 171.719,117.068 173.5,122.5C 172.5,122.5 171.5,122.5 170.5,122.5C 170.5,115.833 170.5,109.167 170.5,102.5C 173.85,102.665 177.183,102.498 180.5,102C 181.737,101.768 182.737,101.268 183.5,100.5C 184.609,100.443 185.609,100.11 186.5,99.5C 190.015,98.761 193.348,98.761 196.5,99.5 Z"/></g>
<g><path style="opacity:1" fill="#f9f8f8" d="M 231.5,104.5 C 232.919,105.451 234.585,105.784 236.5,105.5C 236.5,107.833 236.5,110.167 236.5,112.5C 237.497,112.47 238.164,112.97 238.5,114C 237.87,117.777 237.87,121.61 238.5,125.5C 237.448,125.351 236.448,125.517 235.5,126C 237.215,126.777 238.215,128.11 238.5,130C 237.34,133.394 237.34,136.727 238.5,140C 230.923,142.501 230.923,144.168 238.5,145C 236.527,145.495 234.527,145.662 232.5,145.5C 232.682,147.591 232.348,149.591 231.5,151.5C 233.946,152.983 233.612,154.149 230.5,155C 231.252,155.671 231.586,156.504 231.5,157.5C 230.033,158.292 228.7,158.292 227.5,157.5C 228.119,154.427 228.286,151.427 228,148.5C 227.292,149.381 226.458,150.047 225.5,150.5C 225.167,150.5 224.833,150.5 224.5,150.5C 224.5,150.167 224.5,149.833 224.5,149.5C 224.755,147.033 225.755,145.033 227.5,143.5C 228.644,144.183 228.644,143.849 227.5,142.5C 227.287,139.549 227.954,136.882 229.5,134.5C 230.833,133.833 230.833,133.167 229.5,132.5C 229.5,127.167 229.5,121.833 229.5,116.5C 230.423,112.528 230.423,112.194 229.5,115.5C 228.566,114.432 228.232,113.099 228.5,111.5C 229.404,110.791 229.737,109.791 229.5,108.5C 230.167,107.167 230.833,105.833 231.5,104.5 Z M 236.5,112.5 C 236.053,114.973 235.053,115.14 233.5,113C 234.448,112.517 235.448,112.351 236.5,112.5 Z"/></g>
<g><path style="opacity:1" fill="#625a19" d="M 162.5,100.5 C 167.833,100.5 173.167,100.5 178.5,100.5C 175.713,101.477 172.713,101.81 169.5,101.5C 169.5,108.833 169.5,116.167 169.5,123.5C 168.672,117.347 168.172,111.013 168,104.5C 167.828,111.013 167.328,117.347 166.5,123.5C 166.5,116.167 166.5,108.833 166.5,101.5C 164.901,101.768 163.568,101.434 162.5,100.5 Z"/></g>
<g><path style="opacity:1" fill="#8bc6e9" d="M 203.5,91.5 C 204.496,91.4142 205.329,91.7476 206,92.5C 206.368,91.09 207.201,90.09 208.5,89.5C 210.381,91.7337 212.715,93.067 215.5,93.5C 216.42,96.4667 217.92,99.1333 220,101.5C 220.698,106.373 222.032,111.04 224,115.5C 224.667,117.167 224.667,118.833 224,120.5C 219.236,121.392 214.403,121.392 209.5,120.5C 209.998,114.669 208.665,109.336 205.5,104.5C 206.873,102.51 207.873,100.343 208.5,98C 206.493,96.2873 204.493,94.6207 202.5,93C 203.056,92.6174 203.389,92.1174 203.5,91.5 Z"/></g>
<g><path style="opacity:1" fill="#f3e92a" d="M 152.5,100.5 C 153.536,102.391 153.536,104.224 152.5,106C 154.541,107.741 156.708,107.908 159,106.5C 162.718,111.707 161.218,114.04 154.5,113.5C 154.5,115.167 154.5,116.833 154.5,118.5C 152.174,119.151 149.841,119.818 147.5,120.5C 143.706,120.273 141.706,118.273 141.5,114.5C 142.169,110.157 142.836,105.823 143.5,101.5C 143.866,100.305 144.699,99.6387 146,99.5C 148.099,100.287 150.266,100.62 152.5,100.5 Z"/></g>
<g><path style="opacity:1" fill="#91bed8" d="M 140.5,92.5 C 137.747,99.7554 135.414,107.089 133.5,114.5C 132.523,117.287 132.19,120.287 132.5,123.5C 126.5,123.5 120.5,123.5 114.5,123.5C 114.5,121.833 114.5,120.167 114.5,118.5C 115.465,106.069 120.132,95.2361 128.5,86C 132.547,87.8333 136.547,90 140.5,92.5 Z"/></g>
<g><path style="opacity:1" fill="#8bc6eb" d="M 131.5,90.5 C 132.837,92.3495 133.503,94.5161 133.5,97C 131.859,105.082 131.193,113.249 131.5,121.5C 126.54,122.174 121.54,121.841 116.5,120.5C 117.668,118.783 119.335,118.116 121.5,118.5C 121.664,115.813 121.497,113.146 121,110.5C 120.481,113.492 118.981,114.492 116.5,113.5C 119.391,110.047 120.891,106.047 121,101.5C 122.676,98.8275 124.342,96.1608 126,93.5C 127.876,92.3913 129.709,91.3913 131.5,90.5 Z"/></g>
<g><path style="opacity:1" fill="#f3e739" d="M 152.5,100.5 C 156.059,101.817 159.725,102.817 163.5,103.5C 164.496,109.798 164.83,116.132 164.5,122.5C 155.833,122.5 147.167,122.5 138.5,122.5C 138.374,114.917 140.041,107.917 143.5,101.5C 142.836,105.823 142.169,110.157 141.5,114.5C 141.706,118.273 143.706,120.273 147.5,120.5C 149.841,119.818 152.174,119.151 154.5,118.5C 154.5,116.833 154.5,115.167 154.5,113.5C 161.218,114.04 162.718,111.707 159,106.5C 156.708,107.908 154.541,107.741 152.5,106C 153.536,104.224 153.536,102.391 152.5,100.5 Z"/></g>
<g><path style="opacity:1" fill="#495e69" d="M 203.5,107.5 C 205.074,109.102 205.741,111.102 205.5,113.5C 204.262,111.786 203.595,109.786 203.5,107.5 Z"/></g>
<g><path style="opacity:1" fill="#eae463" d="M 196.5,99.5 C 198.163,102.129 199.829,104.796 201.5,107.5C 201.833,112.833 202.167,118.167 202.5,123.5C 191.5,123.5 180.5,123.5 169.5,123.5C 169.5,116.167 169.5,108.833 169.5,101.5C 172.713,101.81 175.713,101.477 178.5,100.5C 180.167,100.5 181.833,100.5 183.5,100.5C 182.737,101.268 181.737,101.768 180.5,102C 177.183,102.498 173.85,102.665 170.5,102.5C 170.5,109.167 170.5,115.833 170.5,122.5C 171.5,122.5 172.5,122.5 173.5,122.5C 181.507,122.666 189.507,122.5 197.5,122C 200.314,119.098 201.147,115.598 200,111.5C 198.27,107.701 197.104,103.701 196.5,99.5 Z"/></g>
<g><path style="opacity:1" fill="#f4e829" d="M 183.5,104.5 C 185.838,106.04 188.505,106.706 191.5,106.5C 191.5,110.5 191.5,114.5 191.5,118.5C 186.256,117.962 180.923,117.962 175.5,118.5C 175.231,114.069 175.564,109.735 176.5,105.5C 178.764,104.781 181.097,104.448 183.5,104.5 Z"/></g>
<g><path style="opacity:1" fill="#5c838f" d="M 133.5,114.5 C 133.5,117.833 133.5,121.167 133.5,124.5C 132.167,124.5 130.833,124.5 129.5,124.5C 124.167,124.5 118.833,124.5 113.5,124.5C 113.205,122.265 113.539,120.265 114.5,118.5C 114.5,120.167 114.5,121.833 114.5,123.5C 120.5,123.5 126.5,123.5 132.5,123.5C 132.19,120.287 132.523,117.287 133.5,114.5 Z"/></g>
<g><path style="opacity:1" fill="#9b9742" d="M 136.5,113.5 C 136.5,116.833 136.5,120.167 136.5,123.5C 146.5,123.5 156.5,123.5 166.5,123.5C 156.347,124.494 146.014,124.828 135.5,124.5C 135.5,122.833 135.5,121.167 135.5,119.5C 135.205,117.265 135.539,115.265 136.5,113.5 Z"/></g>
<g><path style="opacity:1" fill="#a59e48" d="M 201.5,107.5 C 203.012,112.929 203.679,118.596 203.5,124.5C 191.988,124.828 180.654,124.495 169.5,123.5C 180.5,123.5 191.5,123.5 202.5,123.5C 202.167,118.167 201.833,112.833 201.5,107.5 Z"/></g>
<g><path style="opacity:1" fill="#62859a" d="M 226.5,115.5 C 227.477,118.287 227.81,121.287 227.5,124.5C 220.5,124.5 213.5,124.5 206.5,124.5C 206.5,124.167 206.5,123.833 206.5,123.5C 213.167,123.5 219.833,123.5 226.5,123.5C 226.5,120.833 226.5,118.167 226.5,115.5 Z"/></g>
<g><path style="opacity:1" fill="#3e3407" d="M 169.5,123.5 C 180.654,124.495 191.988,124.828 203.5,124.5C 203.5,125.167 203.5,125.833 203.5,126.5C 203.167,126.5 202.833,126.5 202.5,126.5C 191.5,126.5 180.5,126.5 169.5,126.5C 169.167,126.5 168.833,126.5 168.5,126.5C 167.833,126.5 167.167,126.5 166.5,126.5C 156.347,125.506 146.014,125.172 135.5,125.5C 135.5,125.167 135.5,124.833 135.5,124.5C 146.014,124.828 156.347,124.494 166.5,123.5C 167.328,117.347 167.828,111.013 168,104.5C 168.172,111.013 168.672,117.347 169.5,123.5 Z"/></g>
<g><path style="opacity:1" fill="#355668" d="M 129.5,125.5 C 130.791,125.263 131.791,125.596 132.5,126.5C 126.5,126.5 120.5,126.5 114.5,126.5C 114.5,128.5 114.5,130.5 114.5,132.5C 113.532,130.393 113.198,128.059 113.5,125.5C 118.833,125.5 124.167,125.5 129.5,125.5 Z"/></g>
<g><path style="opacity:1" fill="#6d6418" d="M 135.5,125.5 C 146.014,125.172 156.347,125.506 166.5,126.5C 156.5,126.5 146.5,126.5 136.5,126.5C 136.5,128.5 136.5,130.5 136.5,132.5C 135.532,130.393 135.198,128.059 135.5,125.5 Z"/></g>
<g><path style="opacity:1" fill="#d8d15f" d="M 166.5,126.5 C 166.5,133.5 166.5,140.5 166.5,147.5C 164.901,147.232 163.568,147.566 162.5,148.5C 160.833,148.5 159.167,148.5 157.5,148.5C 159.386,145.901 162.052,144.901 165.5,145.5C 165.5,139.5 165.5,133.5 165.5,127.5C 156.167,127.5 146.833,127.5 137.5,127.5C 138.473,134.905 139.807,142.238 141.5,149.5C 138.25,144.412 136.584,138.745 136.5,132.5C 136.5,130.5 136.5,128.5 136.5,126.5C 146.5,126.5 156.5,126.5 166.5,126.5 Z"/></g>
<g><path style="opacity:1" fill="#92bed7" d="M 206.5,126.5 C 213.5,126.5 220.5,126.5 227.5,126.5C 226.696,136.386 224.029,145.719 219.5,154.5C 212.806,153.649 206.473,152.315 200.5,150.5C 204.639,143.173 206.639,135.173 206.5,126.5 Z"/></g>
<g><path style="opacity:1" fill="#8bc6ea" d="M 221.5,128.5 C 222.5,128.5 223.5,128.5 224.5,128.5C 223.908,131.127 223.575,133.794 223.5,136.5C 222.5,136.5 221.5,136.5 220.5,136.5C 220.762,135.022 220.429,133.689 219.5,132.5C 219.167,133.5 218.833,134.5 218.5,135.5C 219.674,139.531 219.674,143.531 218.5,147.5C 214.217,148.492 209.884,148.826 205.5,148.5C 206.044,146.42 206.878,144.42 208,142.5C 208.499,138.514 208.666,134.514 208.5,130.5C 212.122,130.132 215.622,130.132 219,130.5C 219.995,129.934 220.828,129.267 221.5,128.5 Z"/></g>
<g><path style="opacity:1" fill="#f5e92a" d="M 194.5,128.5 C 195.959,128.433 197.292,128.766 198.5,129.5C 199.263,132.141 199.43,134.808 199,137.5C 196.957,139.712 194.791,141.712 192.5,143.5C 188.574,141.969 184.574,140.636 180.5,139.5C 178.675,140.651 176.675,141.318 174.5,141.5C 174.176,137.445 174.509,133.445 175.5,129.5C 181.943,130.025 188.276,131.025 194.5,132.5C 194.5,131.167 194.5,129.833 194.5,128.5 Z"/></g>
<g><path style="opacity:1" fill="#f1e646" d="M 157.5,148.5 C 157.167,148.5 156.833,148.5 156.5,148.5C 151.5,149.167 146.5,149.833 141.5,150.5C 141.5,150.167 141.5,149.833 141.5,149.5C 139.807,142.238 138.473,134.905 137.5,127.5C 146.833,127.5 156.167,127.5 165.5,127.5C 165.5,133.5 165.5,139.5 165.5,145.5C 162.052,144.901 159.386,145.901 157.5,148.5 Z"/></g>
<g><path style="opacity:1" fill="#97903d" d="M 168.5,126.5 C 168.833,126.5 169.167,126.5 169.5,126.5C 169.5,133.167 169.5,139.833 169.5,146.5C 172.713,146.19 175.713,146.523 178.5,147.5C 175.167,147.5 171.833,147.5 168.5,147.5C 168.5,140.5 168.5,133.5 168.5,126.5 Z"/></g>
<g><path style="opacity:1" fill="#e6dd5f" d="M 169.5,126.5 C 180.5,126.5 191.5,126.5 202.5,126.5C 202.354,130.387 201.687,134.054 200.5,137.5C 201.036,134.302 200.369,131.635 198.5,129.5C 197.292,128.766 195.959,128.433 194.5,128.5C 186.826,128.334 179.159,128.5 171.5,129C 170.527,134.407 170.193,139.907 170.5,145.5C 176.578,144.997 182.244,145.997 187.5,148.5C 186.167,148.5 184.833,148.5 183.5,148.5C 181.833,148.5 180.167,148.5 178.5,148.5C 178.5,148.167 178.5,147.833 178.5,147.5C 175.713,146.523 172.713,146.19 169.5,146.5C 169.5,139.833 169.5,133.167 169.5,126.5 Z"/></g>
<g><path style="opacity:1" fill="#748f9e" d="M 132.5,126.5 C 133.461,128.265 133.795,130.265 133.5,132.5C 134.167,135.5 134.833,138.5 135.5,141.5C 133.933,140.319 133.099,138.653 133,136.5C 132.502,133.183 132.335,129.85 132.5,126.5 Z"/></g>
<g><path style="opacity:1" fill="#423a08" d="M 166.5,126.5 C 167.167,126.5 167.833,126.5 168.5,126.5C 168.5,133.5 168.5,140.5 168.5,147.5C 171.833,147.5 175.167,147.5 178.5,147.5C 178.5,147.833 178.5,148.167 178.5,148.5C 173.167,148.5 167.833,148.5 162.5,148.5C 163.568,147.566 164.901,147.232 166.5,147.5C 166.5,140.5 166.5,133.5 166.5,126.5 Z"/></g>
<g><path style="opacity:1" fill="#1d2315" d="M 135.5,119.5 C 135.5,121.167 135.5,122.833 135.5,124.5C 135.5,124.833 135.5,125.167 135.5,125.5C 135.198,128.059 135.532,130.393 136.5,132.5C 136.584,138.745 138.25,144.412 141.5,149.5C 141.5,149.833 141.5,150.167 141.5,150.5C 141.856,151.87 142.69,152.87 144,153.5C 148.312,151.918 152.478,150.251 156.5,148.5C 156.833,148.5 157.167,148.5 157.5,148.5C 159.167,148.5 160.833,148.5 162.5,148.5C 167.833,148.5 173.167,148.5 178.5,148.5C 180.167,148.5 181.833,148.5 183.5,148.5C 185.515,149.924 187.848,150.59 190.5,150.5C 192.438,152.163 194.772,152.829 197.5,152.5C 197.263,151.209 197.596,150.209 198.5,149.5C 198.5,150.833 198.5,152.167 198.5,153.5C 198.5,153.833 198.5,154.167 198.5,154.5C 197.292,155.234 195.959,155.567 194.5,155.5C 193.167,154.833 191.833,154.167 190.5,153.5C 186.6,152.192 182.6,151.192 178.5,150.5C 175.375,149.521 172.042,149.187 168.5,149.5C 165.615,149.194 162.948,149.527 160.5,150.5C 154.953,151.552 149.619,153.219 144.5,155.5C 143.833,156.167 143.167,156.833 142.5,157.5C 142.573,155.973 141.906,154.973 140.5,154.5C 138.381,150.375 136.715,146.042 135.5,141.5C 134.833,138.5 134.167,135.5 133.5,132.5C 134.167,128.167 134.833,123.833 135.5,119.5 Z"/></g>
<g><path style="opacity:1" fill="#f4e92d" d="M 141.5,129.5 C 147.167,129.5 152.833,129.5 158.5,129.5C 158.443,131.884 158.777,134.218 159.5,136.5C 158.565,139.471 157.732,142.471 157,145.5C 152.699,147.188 148.199,148.188 143.5,148.5C 142.833,142.167 142.167,135.833 141.5,129.5 Z"/></g>
<g><path style="opacity:1" fill="#f1e839" d="M 194.5,128.5 C 194.5,129.833 194.5,131.167 194.5,132.5C 188.276,131.025 181.943,130.025 175.5,129.5C 174.509,133.445 174.176,137.445 174.5,141.5C 176.675,141.318 178.675,140.651 180.5,139.5C 184.574,140.636 188.574,141.969 192.5,143.5C 194.791,141.712 196.957,139.712 199,137.5C 199.43,134.808 199.263,132.141 198.5,129.5C 200.369,131.635 201.036,134.302 200.5,137.5C 199.244,141.356 197.911,145.19 196.5,149C 193.493,149.301 190.493,149.135 187.5,148.5C 182.244,145.997 176.578,144.997 170.5,145.5C 170.193,139.907 170.527,134.407 171.5,129C 179.159,128.5 186.826,128.334 194.5,128.5 Z"/></g>
<g><path style="opacity:1" fill="#6d6c35" d="M 202.5,140.5 C 201.721,143.545 200.387,146.211 198.5,148.5C 198.912,145.198 200.245,142.531 202.5,140.5 Z"/></g>
<g><path style="opacity:1" fill="#dad474" d="M 202.5,126.5 C 202.833,126.5 203.167,126.5 203.5,126.5C 203.331,131.181 202.998,135.848 202.5,140.5C 200.245,142.531 198.912,145.198 198.5,148.5C 198.5,148.833 198.5,149.167 198.5,149.5C 197.596,150.209 197.263,151.209 197.5,152.5C 194.772,152.829 192.438,152.163 190.5,150.5C 189.5,149.833 188.5,149.167 187.5,148.5C 190.493,149.135 193.493,149.301 196.5,149C 197.911,145.19 199.244,141.356 200.5,137.5C 201.687,134.054 202.354,130.387 202.5,126.5 Z"/></g>
<g><path style="opacity:1" fill="#949849" d="M 183.5,148.5 C 184.833,148.5 186.167,148.5 187.5,148.5C 188.5,149.167 189.5,149.833 190.5,150.5C 187.848,150.59 185.515,149.924 183.5,148.5 Z"/></g>
<g><path style="opacity:1" fill="#8fc0dc" d="M 132.5,126.5 C 132.335,129.85 132.502,133.183 133,136.5C 133.099,138.653 133.933,140.319 135.5,141.5C 136.715,146.042 138.381,150.375 140.5,154.5C 136.72,157.242 133.053,160.242 129.5,163.5C 127.479,162.145 125.812,160.479 124.5,158.5C 119.008,150.694 115.674,142.027 114.5,132.5C 114.5,130.5 114.5,128.5 114.5,126.5C 120.5,126.5 126.5,126.5 132.5,126.5 Z"/></g>
<g><path style="opacity:1" fill="#8dc6ea" d="M 115.5,127.5 C 119.833,127.5 124.167,127.5 128.5,127.5C 130.419,135.805 129.586,143.805 126,151.5C 124.108,150.87 122.441,149.87 121,148.5C 119.787,143.973 118.12,139.639 116,135.5C 115.503,132.854 115.336,130.187 115.5,127.5 Z"/></g>
<g><path style="opacity:1" fill="#cec772" d="M 156.5,148.5 C 152.478,150.251 148.312,151.918 144,153.5C 142.69,152.87 141.856,151.87 141.5,150.5C 146.5,149.833 151.5,149.167 156.5,148.5 Z"/></g>
<g><path style="opacity:1" fill="#fdfefd" d="M 235.5,153.5 C 236.386,152.224 237.386,152.224 238.5,153.5C 237.575,154.562 236.575,154.562 235.5,153.5 Z"/></g>
<g><path style="opacity:1" fill="#273b44" d="M 200.5,150.5 C 206.473,152.315 212.806,153.649 219.5,154.5C 219.5,155.5 219.5,156.5 219.5,157.5C 217.621,156.659 215.621,156.325 213.5,156.5C 213.082,155.778 212.416,155.278 211.5,155C 207.179,154.501 202.846,154.334 198.5,154.5C 198.5,154.167 198.5,153.833 198.5,153.5C 199.167,152.5 199.833,151.5 200.5,150.5 Z"/></g>
<g><path style="opacity:1" fill="#c0cac6" d="M 198.5,154.5 C 202.846,154.334 207.179,154.501 211.5,155C 212.416,155.278 213.082,155.778 213.5,156.5C 208.347,155.381 203.347,155.381 198.5,156.5C 196.5,156.833 194.5,157.167 192.5,157.5C 192.167,157.5 191.833,157.5 191.5,157.5C 192.5,156.833 193.5,156.167 194.5,155.5C 195.959,155.567 197.292,155.234 198.5,154.5 Z"/></g>
<g><path style="opacity:1" fill="#959ea0" d="M 223.5,152.5 C 222.438,154.234 222.438,155.901 223.5,157.5C 222.833,157.5 222.167,157.5 221.5,157.5C 220.159,155.166 220.826,153.499 223.5,152.5 Z"/></g>
<g><path style="opacity:1" fill="#8fb8ce" d="M 160.5,150.5 C 162.5,150.5 164.5,150.5 166.5,150.5C 166.5,151.5 166.5,152.5 166.5,153.5C 163.2,150.843 159.867,150.843 156.5,153.5C 157.025,154.192 157.692,154.692 158.5,155C 156.982,156.848 155.149,158.348 153,159.5C 152.667,159.167 152.333,158.833 152,158.5C 151.554,161.662 152.054,164.662 153.5,167.5C 149.738,164.071 146.738,160.071 144.5,155.5C 149.619,153.219 154.953,151.552 160.5,150.5 Z"/></g>
<g><path style="opacity:1" fill="#fbf6dd" d="M 198.5,156.5 C 203.854,156.569 209.187,156.902 214.5,157.5C 214.842,158.338 215.508,158.672 216.5,158.5C 215.402,159.397 215.402,160.23 216.5,161C 217.793,161.49 219.127,161.657 220.5,161.5C 222.88,169.417 223.046,177.417 221,185.5C 218.612,187.293 216.446,189.293 214.5,191.5C 209.18,192.266 203.846,192.432 198.5,192C 197.307,190.905 195.973,190.072 194.5,189.5C 192.396,188.088 190.063,187.088 187.5,186.5C 186.422,180.492 186.422,174.492 187.5,168.5C 188.498,165.747 190.331,163.747 193,162.5C 193.64,160.735 193.473,159.068 192.5,157.5C 194.5,157.167 196.5,156.833 198.5,156.5 Z"/></g>
<g><path style="opacity:1" fill="#8dc4e4" d="M 166.5,153.5 C 166.5,159.833 166.5,166.167 166.5,172.5C 166.5,174.5 165.5,175.5 163.5,175.5C 159.339,173.817 156.006,171.15 153.5,167.5C 152.054,164.662 151.554,161.662 152,158.5C 152.333,158.833 152.667,159.167 153,159.5C 155.149,158.348 156.982,156.848 158.5,155C 157.692,154.692 157.025,154.192 156.5,153.5C 159.867,150.843 163.2,150.843 166.5,153.5 Z"/></g>
<g><path style="opacity:1" fill="#91c0db" d="M 178.5,150.5 C 182.6,151.192 186.6,152.192 190.5,153.5C 183.034,158.084 176.034,163.417 169.5,169.5C 169.5,163.167 169.5,156.833 169.5,150.5C 172.5,150.5 175.5,150.5 178.5,150.5 Z"/></g>
<g><path style="opacity:1" fill="#f2f3f3" d="M 111.5,131.5 C 112.919,138.598 115.085,145.598 118,152.5C 119.371,155.266 121.204,157.599 123.5,159.5C 125.796,163.766 128.796,167.433 132.5,170.5C 134.23,171.026 135.564,172.026 136.5,173.5C 134.597,173.796 132.93,174.463 131.5,175.5C 125.079,175.43 122.412,172.43 123.5,166.5C 120.167,166.167 116.833,165.833 113.5,165.5C 112.142,154.128 111.475,142.794 111.5,131.5 Z"/></g>
<g><path style="opacity:1" fill="#56748e" d="M 168.5,149.5 C 172.042,149.187 175.375,149.521 178.5,150.5C 175.5,150.5 172.5,150.5 169.5,150.5C 169.5,156.833 169.5,163.167 169.5,169.5C 169.167,169.5 168.833,169.5 168.5,169.5C 168.5,162.833 168.5,156.167 168.5,149.5 Z"/></g>
<g><path style="opacity:1" fill="#14354b" d="M 160.5,150.5 C 162.948,149.527 165.615,149.194 168.5,149.5C 168.5,156.167 168.5,162.833 168.5,169.5C 167.833,170.5 167.167,171.5 166.5,172.5C 166.5,166.167 166.5,159.833 166.5,153.5C 166.5,152.5 166.5,151.5 166.5,150.5C 164.5,150.5 162.5,150.5 160.5,150.5 Z"/></g>
<g><path style="opacity:1" fill="#90b3cd" d="M 142.5,157.5 C 148.24,166.908 155.907,174.242 165.5,179.5C 165.5,180.167 165.5,180.833 165.5,181.5C 159.775,181.293 154.441,179.96 149.5,177.5C 152.601,177.692 155.601,178.358 158.5,179.5C 158.833,179.167 159.167,178.833 159.5,178.5C 156.582,176.926 153.915,174.926 151.5,172.5C 150.988,169.649 149.321,168.316 146.5,168.5C 146.649,167.448 146.483,166.448 146,165.5C 144.013,164.782 142.179,163.782 140.5,162.5C 133.924,164.949 133.924,167.449 140.5,170C 141.748,171.4 142.748,172.9 143.5,174.5C 138.383,173.057 134.383,170.057 131.5,165.5C 134.62,162.042 138.286,159.375 142.5,157.5 Z"/></g>
<g><path style="opacity:1" fill="#f7f7f6" d="M 191.5,157.5 C 191.833,157.5 192.167,157.5 192.5,157.5C 193.473,159.068 193.64,160.735 193,162.5C 190.331,163.747 188.498,165.747 187.5,168.5C 186.422,174.492 186.422,180.492 187.5,186.5C 190.063,187.088 192.396,188.088 194.5,189.5C 192.139,189.674 189.806,190.007 187.5,190.5C 187.167,189.167 186.833,189.167 186.5,190.5C 185.833,190.5 185.5,190.167 185.5,189.5C 185.5,188.833 185.167,188.5 184.5,188.5C 183.833,188.5 183.167,188.5 182.5,188.5C 181.29,188.068 180.29,187.401 179.5,186.5C 177.519,184.856 175.519,183.19 173.5,181.5C 173.167,181.5 172.833,181.5 172.5,181.5C 171.177,179.529 169.844,177.529 168.5,175.5C 174.362,167.317 182.029,161.317 191.5,157.5 Z"/></g>
<g><path style="opacity:1" fill="#8ec4e7" d="M 149.5,177.5 C 147.181,177.008 145.181,176.008 143.5,174.5C 142.748,172.9 141.748,171.4 140.5,170C 133.924,167.449 133.924,164.949 140.5,162.5C 142.179,163.782 144.013,164.782 146,165.5C 146.483,166.448 146.649,167.448 146.5,168.5C 149.321,168.316 150.988,169.649 151.5,172.5C 153.915,174.926 156.582,176.926 159.5,178.5C 159.167,178.833 158.833,179.167 158.5,179.5C 155.601,178.358 152.601,177.692 149.5,177.5 Z"/></g>
<g><path style="opacity:1" fill="#f7f8f3" d="M 198.5,156.5 C 203.347,155.381 208.347,155.381 213.5,156.5C 215.621,156.325 217.621,156.659 219.5,157.5C 219.833,157.5 220.167,157.5 220.5,157.5C 221.833,158.833 223.167,160.167 224.5,161.5C 227.326,161.998 229.66,163.331 231.5,165.5C 230.25,167.932 228.75,170.266 227,172.5C 226.333,171.167 225.667,171.167 225,172.5C 224.39,176.236 224.723,179.903 226,183.5C 226.333,183.167 226.667,182.833 227,182.5C 227.494,184.134 227.66,185.801 227.5,187.5C 225.218,185.08 223.218,185.58 221.5,189C 219.257,190.136 216.924,190.97 214.5,191.5C 216.446,189.293 218.612,187.293 221,185.5C 223.046,177.417 222.88,169.417 220.5,161.5C 219.127,161.657 217.793,161.49 216.5,161C 215.402,160.23 215.402,159.397 216.5,158.5C 216.158,157.662 215.492,157.328 214.5,157.5C 209.187,156.902 203.854,156.569 198.5,156.5 Z"/></g>
<g><path style="opacity:1" fill="#122134" d="M 144.5,155.5 C 146.738,160.071 149.738,164.071 153.5,167.5C 156.006,171.15 159.339,173.817 163.5,175.5C 164.643,177.5 166.143,178.167 168,177.5C 168.188,179.061 167.355,179.728 165.5,179.5C 155.907,174.242 148.24,166.908 142.5,157.5C 143.167,156.833 143.833,156.167 144.5,155.5 Z"/></g>
<g><path style="opacity:1" fill="#fdfefd" d="M 244.5,168.5 C 245.525,168.897 245.692,169.563 245,170.5C 244.536,169.906 244.369,169.239 244.5,168.5 Z"/></g>
<g><path style="opacity:1" fill="#beb08b" d="M 200.5,167.5 C 200.389,168.117 200.056,168.617 199.5,169C 200.416,169.278 201.082,169.778 201.5,170.5C 200.5,170.5 199.5,170.5 198.5,170.5C 198.5,171.5 198.5,172.5 198.5,173.5C 197.833,173.167 197.167,172.833 196.5,172.5C 196.369,169.633 197.703,167.967 200.5,167.5 Z"/></g>
<g><path style="opacity:1" fill="#f6f5eb" d="M 201.5,170.5 C 201.5,171.5 201.5,172.5 201.5,173.5C 200.5,173.5 199.5,173.5 198.5,173.5C 198.5,172.5 198.5,171.5 198.5,170.5C 199.5,170.5 200.5,170.5 201.5,170.5 Z"/></g>
<g><path style="opacity:1" fill="#fcfcfc" d="M 244.5,173.5 C 244.369,172.761 244.536,172.094 245,171.5C 245.692,172.437 245.525,173.103 244.5,173.5 Z"/></g>
<g><path style="opacity:1" fill="#f7f7f7" d="M 136.5,173.5 C 141.909,176.511 147.243,179.511 152.5,182.5C 152.833,183.833 153.167,183.833 153.5,182.5C 155.099,182.232 156.432,182.566 157.5,183.5C 159.833,183.5 162.167,183.5 164.5,183.5C 167.5,184.167 170.5,184.833 173.5,185.5C 172.167,185.833 172.167,186.167 173.5,186.5C 173.833,187.833 174.167,187.833 174.5,186.5C 177.135,187.811 179.469,189.478 181.5,191.5C 183.537,192.846 185.537,194.18 187.5,195.5C 186.833,195.5 186.5,195.833 186.5,196.5C 182.629,197.86 182.962,198.694 187.5,199C 184.167,199.667 180.833,199.667 177.5,199C 184.134,198.177 184.134,197.677 177.5,197.5C 177.66,195.801 177.494,194.134 177,192.5C 168.994,191.967 160.494,191.967 151.5,192.5C 151.739,190.533 151.406,188.699 150.5,187C 146.167,186.667 141.833,186.333 137.5,186C 136.5,185.5 135.5,185 134.5,184.5C 133.468,186.04 132.135,186.54 130.5,186C 131.24,184.215 131.907,182.382 132.5,180.5C 129.833,179.833 127.167,179.167 124.5,178.5C 127.217,178.026 129.55,177.026 131.5,175.5C 132.93,174.463 134.597,173.796 136.5,173.5 Z"/></g>
<g><path style="opacity:1" fill="#29353d" d="M 190.5,153.5 C 191.833,154.167 193.167,154.833 194.5,155.5C 193.5,156.167 192.5,156.833 191.5,157.5C 182.029,161.317 174.362,167.317 168.5,175.5C 169.844,177.529 171.177,179.529 172.5,181.5C 172.5,182.167 172.167,182.5 171.5,182.5C 169.621,181.659 167.621,181.325 165.5,181.5C 165.5,180.833 165.5,180.167 165.5,179.5C 167.355,179.728 168.188,179.061 168,177.5C 166.143,178.167 164.643,177.5 163.5,175.5C 165.5,175.5 166.5,174.5 166.5,172.5C 167.167,171.5 167.833,170.5 168.5,169.5C 168.833,169.5 169.167,169.5 169.5,169.5C 176.034,163.417 183.034,158.084 190.5,153.5 Z"/></g>
<g><path style="opacity:1" fill="#949187" d="M 201.5,170.5 C 204.236,173.657 203.236,174.991 198.5,174.5C 198.5,174.167 198.5,173.833 198.5,173.5C 199.5,173.5 200.5,173.5 201.5,173.5C 201.5,172.5 201.5,171.5 201.5,170.5 Z"/></g>
<g><path style="opacity:1" fill="#f9f7f8" d="M 231.5,165.5 C 233.167,166.5 234.5,167.833 235.5,169.5C 234.167,169.833 234.167,170.167 235.5,170.5C 235.833,171.833 236.167,171.833 236.5,170.5C 241.263,173.173 241.597,176.173 237.5,179.5C 234.841,183.154 231.508,186.154 227.5,188.5C 227.5,188.167 227.5,187.833 227.5,187.5C 227.66,185.801 227.494,184.134 227,182.5C 226.667,182.833 226.333,183.167 226,183.5C 224.723,179.903 224.39,176.236 225,172.5C 225.667,171.167 226.333,171.167 227,172.5C 228.75,170.266 230.25,167.932 231.5,165.5 Z"/></g>
<g><path style="opacity:1" fill="#ecd48d" d="M 207.5,166.5 C 204.941,166.198 202.607,166.532 200.5,167.5C 197.703,167.967 196.369,169.633 196.5,172.5C 195.423,182.074 199.757,185.74 209.5,183.5C 208.508,185.026 207.008,185.693 205,185.5C 203.564,185.441 202.231,185.108 201,184.5C 200.097,185.701 198.931,186.535 197.5,187C 198.056,187.383 198.389,187.883 198.5,188.5C 196.45,188.039 194.45,187.372 192.5,186.5C 191.777,183.93 190.61,181.597 189,179.5C 188.204,176.961 188.371,174.628 189.5,172.5C 190.743,168.725 193.076,165.558 196.5,163C 204.448,160.581 211.448,162.081 217.5,167.5C 217.291,168.086 216.957,168.586 216.5,169C 213.642,168.048 210.642,167.215 207.5,166.5 Z"/></g>
<g><path style="opacity:1" fill="#231f16" d="M 207.5,166.5 C 209.36,167.939 211.027,169.605 212.5,171.5C 212.663,173.857 212.497,176.19 212,178.5C 211.667,178.167 211.333,177.833 211,177.5C 207.603,182.989 203.77,183.489 199.5,179C 199.957,178.586 200.291,178.086 200.5,177.5C 199.388,176.735 198.721,175.735 198.5,174.5C 203.236,174.991 204.236,173.657 201.5,170.5C 201.082,169.778 200.416,169.278 199.5,169C 200.056,168.617 200.389,168.117 200.5,167.5C 202.607,166.532 204.941,166.198 207.5,166.5 Z"/></g>
<g><path style="opacity:1" fill="#1d2631" d="M 140.5,154.5 C 141.906,154.973 142.573,155.973 142.5,157.5C 138.286,159.375 134.62,162.042 131.5,165.5C 134.383,170.057 138.383,173.057 143.5,174.5C 145.181,176.008 147.181,177.008 149.5,177.5C 154.441,179.96 159.775,181.293 165.5,181.5C 167.621,181.325 169.621,181.659 171.5,182.5C 169.393,183.468 167.059,183.802 164.5,183.5C 162.167,183.5 159.833,183.5 157.5,183.5C 156.432,182.566 155.099,182.232 153.5,182.5C 153.167,182.5 152.833,182.5 152.5,182.5C 147.243,179.511 141.909,176.511 136.5,173.5C 135.564,172.026 134.23,171.026 132.5,170.5C 128.796,167.433 125.796,163.766 123.5,159.5C 123.5,158.833 123.833,158.5 124.5,158.5C 125.812,160.479 127.479,162.145 129.5,163.5C 133.053,160.242 136.72,157.242 140.5,154.5 Z"/></g>
<g><path style="opacity:1" fill="#fdfefd" d="M 244.5,179.5 C 245.833,180.167 245.833,180.167 244.5,179.5 Z"/></g>
<g><path style="opacity:1" fill="#322910" d="M 212.5,171.5 C 214.411,176.159 213.411,180.159 209.5,183.5C 199.757,185.74 195.423,182.074 196.5,172.5C 197.167,172.833 197.833,173.167 198.5,173.5C 198.5,173.833 198.5,174.167 198.5,174.5C 198.721,175.735 199.388,176.735 200.5,177.5C 200.291,178.086 199.957,178.586 199.5,179C 203.77,183.489 207.603,182.989 211,177.5C 211.333,177.833 211.667,178.167 212,178.5C 212.497,176.19 212.663,173.857 212.5,171.5 Z"/></g>
<g><path style="opacity:1" fill="#f1f1f1" d="M 231.5,157.5 C 233.379,156.659 235.379,156.325 237.5,156.5C 237.844,159.562 238.511,162.562 239.5,165.5C 240.5,166.833 241.5,166.833 242.5,165.5C 243.168,168.306 243.834,170.972 244.5,173.5C 244.286,175.144 244.62,176.644 245.5,178C 243.91,182.566 242.91,187.4 242.5,192.5C 237.261,190.925 235.595,192.591 237.5,197.5C 231.955,196.732 226.621,196.398 221.5,196.5C 222.833,196.167 222.833,195.833 221.5,195.5C 227.819,191.668 233.819,187.334 239.5,182.5C 240.624,180.208 241.957,178.042 243.5,176C 241.66,172.675 239.66,169.508 237.5,166.5C 237.167,165.167 236.833,165.167 236.5,166.5C 232.541,162.958 228.208,159.958 223.5,157.5C 222.438,155.901 222.438,154.234 223.5,152.5C 223.263,151.209 223.596,150.209 224.5,149.5C 224.5,149.833 224.5,150.167 224.5,150.5C 224.833,151.833 225.167,151.833 225.5,150.5C 226.458,150.047 227.292,149.381 228,148.5C 228.286,151.427 228.119,154.427 227.5,157.5C 228.7,158.292 230.033,158.292 231.5,157.5 Z"/></g>
<g><path style="opacity:1" fill="#fcfdfc" d="M 244.5,183.5 C 245.833,184.167 245.833,184.167 244.5,183.5 Z"/></g>
<g><path style="opacity:1" fill="#ebd391" d="M 198.5,188.5 C 198.389,187.883 198.056,187.383 197.5,187C 198.931,186.535 200.097,185.701 201,184.5C 202.231,185.108 203.564,185.441 205,185.5C 207.008,185.693 208.508,185.026 209.5,183.5C 213.411,180.159 214.411,176.159 212.5,171.5C 211.027,169.605 209.36,167.939 207.5,166.5C 210.642,167.215 213.642,168.048 216.5,169C 216.957,168.586 217.291,168.086 217.5,167.5C 211.448,162.081 204.448,160.581 196.5,163C 193.076,165.558 190.743,168.725 189.5,172.5C 190.489,166.01 194.155,161.843 200.5,160C 218.386,159.857 224.219,168.357 218,185.5C 214.312,189.259 209.812,191.259 204.5,191.5C 201.898,191.533 199.898,190.533 198.5,188.5 Z"/></g>
<g><path style="opacity:1" fill="#fdfefd" d="M 244.5,188.5 C 245.525,188.897 245.692,189.563 245,190.5C 244.536,189.906 244.369,189.239 244.5,188.5 Z"/></g>
<g><path style="opacity:1" fill="#f2f2f3" d="M 187.5,195.5 C 188.492,195.328 189.158,195.662 189.5,196.5C 188.5,197.833 187.5,197.833 186.5,196.5C 187.167,196.5 187.5,196.167 187.5,195.5 Z"/></g>
<g><path style="opacity:1" fill="#e5e5e7" d="M 221.5,195.5 C 221.5,195.833 221.5,196.167 221.5,196.5C 220.292,197.234 218.959,197.567 217.5,197.5C 218.514,196.326 219.847,195.66 221.5,195.5 Z"/></g>
<g><path style="opacity:1" fill="#d3d4d3" d="M 190.5,196.5 C 197.323,198.335 204.323,199.002 211.5,198.5C 211.5,198.833 211.5,199.167 211.5,199.5C 203.826,199.666 196.159,199.5 188.5,199C 190.935,198.925 191.602,198.092 190.5,196.5 Z"/></g>
<g><path style="opacity:1" fill="#424342" d="M 220.5,157.5 C 220.833,157.5 221.167,157.5 221.5,157.5C 222.167,157.5 222.833,157.5 223.5,157.5C 228.208,159.958 232.541,162.958 236.5,166.5C 236.833,166.5 237.167,166.5 237.5,166.5C 239.66,169.508 241.66,172.675 243.5,176C 241.957,178.042 240.624,180.208 239.5,182.5C 233.819,187.334 227.819,191.668 221.5,195.5C 219.847,195.66 218.514,196.326 217.5,197.5C 215.5,197.833 213.5,198.167 211.5,198.5C 204.323,199.002 197.323,198.335 190.5,196.5C 190.167,196.5 189.833,196.5 189.5,196.5C 189.158,195.662 188.492,195.328 187.5,195.5C 185.537,194.18 183.537,192.846 181.5,191.5C 179.469,189.478 177.135,187.811 174.5,186.5C 174.167,186.5 173.833,186.5 173.5,186.5C 173.5,186.167 173.5,185.833 173.5,185.5C 170.5,184.833 167.5,184.167 164.5,183.5C 167.059,183.802 169.393,183.468 171.5,182.5C 172.167,182.5 172.5,182.167 172.5,181.5C 172.833,181.5 173.167,181.5 173.5,181.5C 175.519,183.19 177.519,184.856 179.5,186.5C 180.29,187.401 181.29,188.068 182.5,188.5C 186.148,191.997 190.481,194.497 195.5,196C 201.5,196.667 207.5,196.667 213.5,196C 216.679,195.248 219.346,193.748 221.5,191.5C 221.833,191.5 222.167,191.5 222.5,191.5C 223.492,191.672 224.158,191.338 224.5,190.5C 226.027,190.573 227.027,189.906 227.5,188.5C 231.508,186.154 234.841,183.154 237.5,179.5C 241.597,176.173 241.263,173.173 236.5,170.5C 236.167,170.5 235.833,170.5 235.5,170.5C 235.5,170.167 235.5,169.833 235.5,169.5C 234.5,167.833 233.167,166.5 231.5,165.5C 229.66,163.331 227.326,161.998 224.5,161.5C 223.167,160.167 221.833,158.833 220.5,157.5 Z"/></g>
<g><path style="opacity:1" fill="#eeede7" d="M 227.5,187.5 C 227.5,187.833 227.5,188.167 227.5,188.5C 227.027,189.906 226.027,190.573 224.5,190.5C 224.158,191.338 223.492,191.672 222.5,191.5C 222.167,190.167 221.833,190.167 221.5,191.5C 219.346,193.748 216.679,195.248 213.5,196C 207.5,196.667 201.5,196.667 195.5,196C 190.481,194.497 186.148,191.997 182.5,188.5C 183.167,188.5 183.833,188.5 184.5,188.5C 185.167,188.5 185.5,188.833 185.5,189.5C 185.5,190.167 185.833,190.5 186.5,190.5C 186.833,190.5 187.167,190.5 187.5,190.5C 189.806,190.007 192.139,189.674 194.5,189.5C 195.973,190.072 197.307,190.905 198.5,192C 203.846,192.432 209.18,192.266 214.5,191.5C 216.924,190.97 219.257,190.136 221.5,189C 223.218,185.58 225.218,185.08 227.5,187.5 Z"/></g>
<g><path style="opacity:1" fill="#fbfbfa" d="M 217.5,197.5 C 223.987,198.328 230.654,198.828 237.5,199C 228.84,199.5 220.173,199.666 211.5,199.5C 211.5,199.167 211.5,198.833 211.5,198.5C 213.5,198.167 215.5,197.833 217.5,197.5 Z"/></g>
</svg>
